HIERARCHY
ROOT Hips
{
	OFFSET 39.417099 3.596817 81.715103
	CHANNELS 6 Xposition Yposition Zposition Xrotation Yrotation Zrotation
	JOINT spine
	{
		OFFSET 0.000000 -0.359108 6.244789
		CHANNELS 3 Xrotation Yrotation Zrotation
		JOINT spine1
		{
			OFFSET 0.000000 -0.000001 9.069412
			CHANNELS 3 Xrotation Yrotation Zrotation
			JOINT spine2
			{
				OFFSET 0.000000 -0.000001 8.690140
				CHANNELS 3 Xrotation Yrotation Zrotation
				JOINT Neck
				{
					OFFSET 0.000000 -1.063724 22.311195
					CHANNELS 3 Xrotation Yrotation Zrotation
					JOINT Head
					{
						OFFSET 0.000000 -0.000001 6.740814
						CHANNELS 3 Xrotation Yrotation Zrotation
						End Site
						{
							OFFSET 0.000000 5.380967 16.316498
						}
					}
				}
				JOINT RightShoulder
				{
					OFFSET -3.659161 0.509512 9.384682
					CHANNELS 3 Xrotation Yrotation Zrotation
					JOINT RightArm
					{
						OFFSET 0.000000 -0.000002 12.308899
						CHANNELS 3 Xrotation Yrotation Zrotation
						JOINT RightArmRoll
						{
							OFFSET 0.000000 -0.000001 6.213745
							CHANNELS 3 Xrotation Yrotation Zrotation
							JOINT RightForeArm
							{
								OFFSET 0.000000 -0.000003 18.098495
								CHANNELS 3 Xrotation Yrotation Zrotation
								JOINT RightForeArmRoll
								{
									OFFSET 0.000000 -0.000001 6.972794
									CHANNELS 3 Xrotation Yrotation Zrotation
									JOINT RightHand
									{
										OFFSET 0.000000 -0.000002 13.992905
										CHANNELS 3 Xrotation Yrotation Zrotation
										End Site
										{
											OFFSET 0.000000 0.000000 0.100006
										}
									}
								}
							}
						}
					}
				}
				JOINT LeftShoulder
				{
					OFFSET 3.659161 0.509512 9.384682
					CHANNELS 3 Xrotation Yrotation Zrotation
					JOINT LeftArm
					{
						OFFSET 0.000000 -0.000002 12.308899
						CHANNELS 3 Xrotation Yrotation Zrotation
						JOINT LeftArmRoll
						{
							OFFSET 0.000000 -0.000001 6.213745
							CHANNELS 3 Xrotation Yrotation Zrotation
							JOINT LeftForeArm
							{
								OFFSET 0.000000 -0.000003 18.098495
								CHANNELS 3 Xrotation Yrotation Zrotation
								JOINT LeftForeArmRoll
								{
									OFFSET 0.000000 -0.000001 6.972794
									CHANNELS 3 Xrotation Yrotation Zrotation
									JOINT LeftHand
									{
										OFFSET 0.000000 -0.000002 13.992905
										CHANNELS 3 Xrotation Yrotation Zrotation
										End Site
										{
											OFFSET 0.000000 0.000000 0.100006
										}
									}
								}
							}
						}
					}
				}
			}
		}
	}
	JOINT RightUpLeg
	{
		OFFSET -5.535149 0.851454 -1.014999
		CHANNELS 3 Xrotation Yrotation Zrotation
		JOINT RightUpLegRoll
		{
			OFFSET 0.000000 -0.000002 16.407501
			CHANNELS 3 Xrotation Yrotation Zrotation
			JOINT RightLeg
			{
				OFFSET 0.000000 0.000003 -20.318100
				CHANNELS 3 Xrotation Yrotation Zrotation
				JOINT RightLegRoll
				{
					OFFSET 0.000000 -0.000003 20.384598
					CHANNELS 3 Xrotation Yrotation Zrotation
					JOINT RightFoot
					{
						OFFSET 0.000000 -0.000003 16.966797
						CHANNELS 3 Xrotation Yrotation Zrotation
						JOINT RightToeBase
						{
							OFFSET 0.000000 -0.000002 14.183395
							CHANNELS 3 Xrotation Yrotation Zrotation
							End Site
							{
								OFFSET 0.006012 0.791745 6.868896
							}
						}
					}
				}
			}
		}
	}
	JOINT LeftUpLeg
	{
		OFFSET 5.535149 0.851454 -1.014999
		CHANNELS 3 Xrotation Yrotation Zrotation
		JOINT LeftUpLegRoll
		{
			OFFSET 0.000000 -0.000002 16.407600
			CHANNELS 3 Xrotation Yrotation Zrotation
			JOINT LeftLeg
			{
				OFFSET 0.000000 -0.000003 20.318100
				CHANNELS 3 Xrotation Yrotation Zrotation
				JOINT LeftLegRoll
				{
					OFFSET 0.000000 -0.000003 20.573097
					CHANNELS 3 Xrotation Yrotation Zrotation
					JOINT LeftFoot
					{
						OFFSET 0.000000 -0.000003 16.778305
						CHANNELS 3 Xrotation Yrotation Zrotation
						JOINT LeftToeBase
						{
							OFFSET 0.000000 -0.000002 14.183395
							CHANNELS 3 Xrotation Yrotation Zrotation
							End Site
							{
								OFFSET -0.026943 0.791745 6.868896
							}
						}
					}
				}
			}
		}
	}
}
MOTION
Frames: 8
Frame Time: 0.041667
58.428600 -9.512104 82.704910 -2.617542 23.927017 77.601119 -3.133180 1.372017 1.250315 -2.294024 2.687188 2.562869 -0.648881 2.717685 2.530518 -36.053860 13.186990 3.428214 24.125079 -25.740563 4.177666 -2.442738 -14.243676 4.073019 -83.050039 -201.847362 -79.932912 0.000002 0.000001 0.000009 16.911255 -1.559304 -1.337770 -0.000001 0.000003 -3.000001 -5.000354 -7.999114 0.000135 -71.403645 71.414272 79.527963 -89.578327 109.025822 74.061872 0.000001 -0.000005 -0.000000 25.158746 7.241092 -0.946813 0.000008 -0.000005 3.000001 -4.999741 8.000044 0.000013 -9.904381 -187.081996 -1.929907 -179.999991 0.000005 -0.999995 156.606470 -3.239568 -1.723409 -0.000000 -0.000004 0.299885 71.531950 6.754902 2.316818 30.356868 -7.535140 -1.737239 -43.760134 173.724741 8.171229 -0.000001 -0.000006 -0.532573 -16.508750 -2.507187 0.498901 0.000001 -0.000003 0.500677 62.083633 -5.692248 -5.166818 25.457609 7.346667 -0.001105 
58.452896 -9.515224 82.707611 -2.615483 23.972822 77.636998 -3.129546 1.372580 1.248799 -2.286749 2.688840 2.559752 -0.641603 2.719300 2.527371 -36.060117 13.266153 3.476487 24.134506 -25.735504 4.179745 -2.449249 -14.189553 4.075129 -82.872488 -201.960320 -80.051600 0.000003 0.000001 0.000009 16.863428 -1.675158 -1.316595 -0.000004 0.000001 -3.000000 -5.000357 -7.999109 0.000133 -71.521978 71.471933 79.637738 -89.513625 109.140508 74.078374 0.000000 -0.000005 -0.000001 25.192591 7.276771 -0.955532 0.000009 -0.000005 3.000001 -4.999744 8.000042 0.000014 -9.922969 -187.077652 -1.940439 -179.999991 0.000005 -0.998996 156.631551 -3.226402 -1.720057 -0.000002 -0.000004 0.299948 71.525680 6.754993 2.317511 30.280957 -7.532152 -1.739746 -43.798434 173.746243 8.186390 -0.000002 -0.000005 -0.531834 -16.523669 -2.515202 0.498484 0.000001 -0.000003 0.500241 62.101487 -5.697492 -5.155484 25.457607 7.346662 -0.001114 
58.481800 -9.519623 82.723099 -2.613822 24.019813 77.674182 -3.126340 1.373174 1.247254 -2.280323 2.690630 2.556582 -0.635169 2.721053 2.524186 -36.064058 13.339897 3.522158 24.146233 -25.724354 4.181309 -2.456210 -14.142719 4.074855 -82.692875 -202.074220 -80.166128 0.000003 -0.000000 0.000009 16.818461 -1.790340 -1.295473 -0.000002 0.000001 -3.000001 -5.000358 -7.999111 0.000133 -71.645317 71.528282 79.753134 -89.459919 109.259681 74.105606 0.000000 -0.000004 0.000001 25.222130 7.312756 -0.964070 0.000009 -0.000005 2.999999 -4.999744 8.000043 0.000015 -9.943209 -187.073267 -1.951751 -179.999991 0.000005 -0.997987 156.656522 -3.213228 -1.716720 -0.000002 -0.000005 0.300023 71.520352 6.755003 2.318237 30.202738 -7.529189 -1.744159 -43.838333 173.767895 8.202571 -0.000003 -0.000005 -0.531056 -16.538091 -2.523412 0.497999 0.000001 -0.000003 0.499902 62.119983 -5.703386 -5.142872 25.457613 7.346665 -0.001115 
58.510799 -9.524185 82.724503 -2.612456 24.067309 77.712103 -3.123462 1.373795 1.245701 -2.274544 2.692530 2.553426 -0.629384 2.722915 2.521011 -36.065687 13.408875 3.565511 24.159784 -25.708057 4.182403 -2.463401 -14.102380 4.072730 -82.511069 -202.188161 -80.278478 0.000002 -0.000000 0.000009 16.776451 -1.904359 -1.274476 -0.000002 0.000001 -2.999999 -5.000357 -7.999111 0.000136 -71.772727 71.583313 79.873113 -89.415857 109.383041 74.142380 -0.000001 -0.000005 -0.000001 25.247755 7.348948 -0.972451 0.000009 -0.000005 2.999999 -4.999742 8.000043 0.000010 -9.964420 -187.069866 -1.963485 -179.999991 0.000005 -0.996991 156.681767 -3.200056 -1.713377 0.000001 -0.000004 0.300107 71.515666 6.755037 2.318927 30.122900 -7.526233 -1.750123 -43.879253 173.789615 8.219532 0.000000 -0.000005 -0.530242 -16.552318 -2.531798 0.497460 0.000001 -0.000003 0.499639 62.139190 -5.709763 -5.129041 25.457611 7.346662 -0.001125 
58.536003 -9.526365 82.722694 -2.611303 24.114896 77.750413 -3.120789 1.374460 1.244192 -2.269199 2.694549 2.550364 -0.624043 2.724887 2.517918 -36.064809 13.473961 3.606868 24.174620 -25.687744 4.183114 -2.470600 -14.067934 4.069233 -82.326866 -202.301324 -80.387631 0.000002 0.000001 0.000009 16.737285 -2.016805 -1.253742 -0.000002 0.000002 -3.000002 -5.000351 -7.999113 0.000134 -71.904345 71.637230 79.997764 -89.380183 109.509980 74.187138 0.000001 -0.000005 0.000000 25.269668 7.385266 -0.980643 0.000010 -0.000005 3.000001 -4.999743 8.000044 0.000012 -9.985966 -187.068418 -1.975285 -179.999991 0.000005 -0.996989 156.707421 -3.187803 -1.709411 0.000003 -0.000004 0.300195 71.511309 6.755097 2.319600 30.042047 -7.523297 -1.757322 -43.920391 173.812086 8.236320 0.000000 -0.000005 -0.529406 -16.566346 -2.540356 0.496893 0.000001 -0.000003 0.499435 62.158785 -5.716541 -5.114388 25.457614 7.346664 -0.001125 
58.556297 -9.531660 82.725891 -2.610269 24.162076 77.788744 -3.118248 1.375161 1.242756 -2.264121 2.696656 2.547468 -0.618950 2.726962 2.514988 -36.061459 13.535895 3.646578 24.190346 -25.664253 4.183481 -2.477625 -14.038588 4.064865 -82.141419 -202.413107 -80.491321 0.000003 0.000003 0.000010 16.700948 -2.127186 -1.233379 -0.000003 0.000003 -3.000001 -5.000352 -7.999113 0.000135 -72.038695 71.690205 80.125543 -89.351838 109.640403 74.238808 0.000000 -0.000005 -0.000000 25.287964 7.421620 -0.988655 0.000010 -0.000005 2.999997 -4.999742 8.000043 0.000015 -10.007086 -187.065986 -1.987508 -179.999991 0.000006 -0.995994 156.733567 -3.175557 -1.706437 -0.000000 -0.000003 0.300281 71.507368 6.755122 2.320242 29.960697 -7.520387 -1.765463 -43.961328 173.834489 8.253402 -0.000003 -0.000005 -0.528549 -16.580274 -2.549050 0.496338 0.000001 -0.000003 0.499269 62.178846 -5.723650 -5.098989 25.457613 7.346662 -0.001134 
58.589104 -9.536154 82.732292 -2.609291 24.208366 77.826570 -3.115730 1.375893 1.241438 -2.259079 2.698845 2.544796 -0.613907 2.729124 2.512281 -36.055537 13.595452 3.684921 24.206421 -25.638717 4.183604 -2.484250 -14.013638 4.060134 -81.954190 -202.522567 -80.591588 0.000003 -0.000000 0.000010 16.667354 -2.235063 -1.213457 -0.000004 0.000003 -3.000001 -5.000357 -7.999113 0.000133 -72.176043 71.742244 80.256649 -89.329599 109.773598 74.296195 0.000000 -0.000005 0.000000 25.302938 7.457926 -0.996491 0.000007 -0.000005 3.000001 -4.999739 8.000043 0.000013 -10.027154 -187.064579 -1.999612 -179.999991 0.000005 -0.994996 156.760601 -3.163326 -1.703424 0.000000 -0.000004 0.300366 71.503543 6.755174 2.320783 29.879462 -7.517498 -1.774234 -44.001482 173.856796 8.270526 -0.000001 -0.000005 -0.527682 -16.594307 -2.557884 0.495795 0.000001 -0.000002 0.499126 62.199234 -5.730827 -5.083390 25.457609 7.346662 -0.001134 
58.604996 -9.540033 82.734001 -2.608246 24.253250 77.863603 -3.113145 1.376666 1.240266 -2.253885 2.701123 2.542421 -0.608713 2.731366 2.509877 -36.046952 13.653311 3.722165 24.222591 -25.612028 4.183625 -2.490256 -13.992296 4.055538 -81.766326 -202.629214 -80.685161 0.000003 0.000002 0.000009 16.636582 -2.339984 -1.194138 -0.000007 0.000001 -3.000002 -5.000358 -7.999110 0.000134 -72.315529 71.793580 80.390145 -89.312735 109.909382 74.358459 0.000000 -0.000005 -0.000000 25.314882 7.494079 -1.004140 0.000009 -0.000005 3.000000 -4.999742 8.000043 0.000010 -10.045485 -187.064183 -2.011429 -179.999991 0.000005 -0.993998 156.788536 -3.151112 -1.699378 -0.000003 -0.000004 0.300442 71.499602 6.755229 2.321331 29.798923 -7.514645 -1.783309 -44.040124 173.878940 8.287441 -0.000001 -0.000005 -0.526820 -16.608643 -2.566827 0.495305 0.000001 -0.000002 0.498986 62.219745 -5.738067 -5.067693 25.457614 7.346663 -0.001144 
